<?xml version="1.0" standalone="no"?><svg xmlns="http://www.w3.org/2000/svg" viewBox="0 0 1440 320"><path fill="#ffb703" fill-opacity="1" d="M0,32L40,80C80,128,160,224,240,245.3C320,267,400,213,480,208C560,203,640,245,720,234.7C800,224,880,160,960,160C1040,160,1120,224,1200,218.7C1280,213,1360,139,1400,101.3L1440,64L1440,320L1400,320C1360,320,1280,320,1200,320C1120,320,1040,320,960,320C880,320,800,320,720,320C640,320,560,320,480,320C400,320,320,320,240,320C160,320,80,320,40,320L0,320Z"></path></svg>